<svg width="110" height="25" viewBox="0 0 110 25" fill="none" xmlns="http://www.w3.org/2000/svg">
<path fill-rule="evenodd" clip-rule="evenodd" d="M62.2494 23.2436L74.127 23.2436C77.4331 23.2436 81.0236 22.6539 83.7921 20.6603C82.3522 20.218 80.9556 19.609 79.7629 18.8077C77.6556 17.3847 76.1787 15.3526 76.1787 12.4936C76.1787 9.93595 77.7669 8.218 79.8247 7.46159C80.6096 7.17313 81.4685 7.02569 82.3337 7.0321C83.2051 7.03851 84.0702 7.19877 84.8736 7.51928C87.0427 8.37826 88.7607 10.359 88.7607 13.5962C88.7607 16.1924 88.0006 18.2436 86.7584 19.8462C87.7101 20.0193 88.6371 20.1347 89.4714 20.1988C94.2854 20.5706 97.6163 20.2308 99.9337 19.4424C102.146 18.6924 103.413 17.5257 104.173 16.1795C104.457 15.6731 104.593 15.1795 104.575 14.7565C104.556 14.4295 104.439 14.1603 104.216 13.9872C103.988 13.8142 103.74 13.7501 103.512 13.7757C103.172 13.8077 102.851 14.0385 102.733 14.3783C102.659 14.6026 102.659 14.8847 102.783 15.2116C102.925 15.5962 102.739 16.0257 102.369 16.1731C101.998 16.3206 101.584 16.1283 101.442 15.7436C101.188 15.0513 101.194 14.4167 101.386 13.8783C101.695 12.9872 102.48 12.3847 103.388 12.2949C103.951 12.2372 104.55 12.3847 105.081 12.7885C105.675 13.2372 105.99 13.9167 106.027 14.6924C106.058 15.3911 105.86 16.1795 105.428 16.9424C104.501 18.577 102.993 19.9872 100.397 20.8718C97.9067 21.718 94.3966 22.0834 89.3848 21.6988C88.2292 21.609 86.9191 21.4359 85.5781 21.1347C84.5831 22.0321 83.4337 22.7244 82.2163 23.2501L198.693 23.2501C198.94 23.2501 199.162 23.1475 199.329 22.9808C199.496 22.7949 199.595 22.5642 199.595 22.3078C199.595 22.1283 199.546 21.9616 199.465 21.8206C199.372 21.6731 199.249 21.5513 199.101 21.4744C198.742 21.2885 198.606 20.8334 198.785 20.468C198.965 20.0962 199.403 19.9488 199.756 20.1411C200.145 20.3462 200.466 20.6603 200.695 21.0385C200.911 21.4103 201.041 21.8398 201.041 22.3078C201.041 22.9744 200.775 23.5834 200.349 24.0257C199.922 24.468 199.335 24.7437 198.693 24.7437C103.784 24.7436 8.88707 24.7436 -86.0281 24.7436C-86.6708 24.7436 -87.2579 24.468 -87.6843 24.0257C-88.1107 23.5834 -88.3764 22.9744 -88.3764 22.3077C-88.3764 21.8398 -88.2466 21.4039 -88.0303 21.0385C-87.8017 20.6603 -87.4803 20.3462 -87.091 20.1411C-86.7326 19.9552 -86.3 20.1026 -86.1208 20.468C-85.9416 20.8334 -86.0837 21.2885 -86.436 21.4744C-86.5843 21.5513 -86.7141 21.6731 -86.8006 21.8206C-86.8871 21.9616 -86.9303 22.1282 -86.9303 22.3077C-86.9303 22.5641 -86.8315 22.7949 -86.6708 22.968C-86.5101 23.1347 -86.2815 23.2372 -86.0343 23.2372L30.4669 23.2372C29.2494 22.7116 28.1 22.0193 27.1051 21.1218C25.764 21.4231 24.4539 21.5962 23.2983 21.6859C18.2865 22.0706 14.7764 21.7052 12.286 20.859C9.69045 19.9744 8.17641 18.5706 7.25562 16.9295C6.82304 16.1667 6.62529 15.3847 6.65619 14.6795C6.69327 13.9039 7.00842 13.2244 7.60169 12.7757C8.13315 12.3718 8.73258 12.2244 9.29494 12.2821C9.73988 12.327 10.1601 12.4936 10.5062 12.7629C10.8584 13.0385 11.1365 13.4103 11.2972 13.8654C11.4826 14.4039 11.4949 15.0449 11.2416 15.7308C11.0994 16.1154 10.6854 16.3077 10.3084 16.1603C9.93762 16.0129 9.75224 15.5834 9.89438 15.1988C10.018 14.8718 10.018 14.5898 9.9438 14.3654C9.88818 14.1988 9.78314 14.0577 9.64719 13.9552C9.50505 13.8462 9.3382 13.7821 9.16518 13.7629C8.93652 13.7372 8.68932 13.8013 8.46066 13.9744C8.23819 14.1411 8.12079 14.4167 8.10225 14.7436C8.08371 15.1603 8.21967 15.6603 8.50392 16.1667C9.26404 17.5129 10.5309 18.6731 12.7432 19.4295C15.0668 20.218 18.3978 20.5577 23.2056 20.1859C24.0399 20.1218 24.9668 20.0065 25.9185 19.8334C24.6764 18.2308 23.9163 16.1795 23.9163 13.5834C23.9163 10.3462 25.6343 8.36543 27.7972 7.50646C28.6006 7.18595 29.4719 7.0321 30.3371 7.01928C31.2022 7.01287 32.0612 7.1603 32.8461 7.44877C34.9039 8.20518 36.4921 9.92313 36.4921 12.4808C36.4921 15.3398 35.0152 17.3718 32.9079 18.7949C31.7152 19.6026 30.3124 20.2052 28.8786 20.6475C31.6843 22.6603 35.2623 23.2308 38.6056 23.2308L54.0118 23.2308C53.0972 22.859 52.2444 22.4167 51.4595 21.8975C48.382 19.8526 46.423 16.6731 46.2623 12.1154C46.2562 11.8783 46.25 11.6795 46.25 11.5385C46.25 8.3462 47.3747 5.40389 49.3214 3.28851C51.1938 1.25646 53.8079 -0.0127711 56.9101 -0.0127709C59.9011 -0.0127706 62.4596 0.98723 64.2764 2.67954C66.1303 4.4039 67.2118 6.83979 67.2118 9.6539C67.2118 12.2116 66.291 14.2501 64.9006 15.6924C63.3124 17.3462 61.1124 18.218 58.9803 18.218C54.8461 18.218 52.1949 15.4808 52.1949 11.1795C52.1949 9.51287 52.7264 8.05774 53.7275 7.0321C54.6792 6.05774 56.0388 5.47441 57.7444 5.47441C58.9989 5.47441 60.0433 5.97441 60.7848 6.77569C61.5697 7.61543 62.0084 8.78851 62.0084 10.0321C62.0084 10.8142 61.7674 11.5257 61.3719 12.0962C61.0135 12.609 60.5191 13.0129 59.9691 13.2436C59.4067 13.4808 58.7764 13.5385 58.1522 13.3718C57.5528 13.2116 56.9657 12.8462 56.459 12.2308C56.1994 11.9167 56.2365 11.4424 56.5393 11.1731C56.8421 10.9039 57.2994 10.9424 57.559 11.2565C57.8618 11.6283 58.1893 11.8398 58.5168 11.9231C58.832 12.0065 59.1534 11.9744 59.4438 11.8526C59.7404 11.7308 60.0124 11.5065 60.2163 11.218C60.4449 10.8975 60.5809 10.4872 60.5809 10.0385C60.5809 9.17954 60.2905 8.38467 59.7652 7.82056C59.2893 7.30774 58.6034 6.98723 57.7691 6.98723C56.4652 6.98723 55.4579 7.4039 54.7719 8.10902C54.0489 8.85261 53.6657 9.92954 53.6657 11.1924C53.6657 14.6603 55.6742 16.7244 59.0051 16.7244C60.7725 16.7244 62.5955 16.0065 63.9056 14.6411C65.0427 13.4616 65.7966 11.7821 65.7966 9.6539C65.7966 7.2821 64.8944 5.23723 63.3432 3.79492C61.786 2.3462 59.5674 1.48723 56.941 1.48723C54.259 1.48723 52.0034 2.57697 50.3966 4.32056C48.7034 6.16031 47.727 8.73082 47.727 11.5385C47.727 11.7693 47.727 11.9424 47.7331 12.0706C47.8691 16.077 49.5809 18.859 52.2629 20.6347C55.0871 22.5385 58.9 23.2436 62.2494 23.2436ZM79.7011 15.6283C80.418 15.8462 81.2831 15.827 81.9629 15.4744C82.5191 15.1859 82.8961 14.6731 82.8528 13.968C82.8034 13.2308 82.3028 12.5385 81.5489 12.5129C81.3017 12.5065 81.1039 12.5642 80.9618 12.6731C80.7579 12.8206 80.659 13.0642 80.6528 13.3142C80.6466 13.5513 80.7146 13.8013 80.8753 14.0257C81.1101 14.3654 81.0298 14.8334 80.7084 15.0706C80.3809 15.3142 79.9298 15.2308 79.7011 14.8975C79.3551 14.3975 79.2006 13.8206 79.2129 13.2693C79.2315 12.5513 79.5466 11.8718 80.1213 11.4488C80.5045 11.1603 80.9989 11.0001 81.5921 11.0129C83.0938 11.0577 84.1938 12.3462 84.2989 13.859C84.3916 15.2565 83.6747 16.2629 82.6118 16.8142C81.8517 17.2052 80.9556 17.3334 80.1152 17.2308C80.2573 17.3398 80.4056 17.4488 80.5539 17.5513C81.8764 18.4424 83.5017 19.0706 85.1393 19.4936C86.4742 18.0642 87.3208 16.1411 87.3208 13.6026C87.3208 11.0962 86.0169 9.57698 84.3669 8.92313C83.718 8.66672 83.0258 8.53851 82.3337 8.5321C81.6416 8.52569 80.9494 8.64108 80.3129 8.87826C78.7989 9.43595 77.6309 10.6731 77.6309 12.5001C77.6247 13.9488 78.2242 15.1795 79.7011 15.6283ZM35.0461 12.4936C35.0461 10.6667 33.8781 9.42953 32.364 8.87184C31.7275 8.64107 31.0354 8.51928 30.3432 8.52569C29.6511 8.5321 28.959 8.6603 28.3101 8.91671C26.6601 9.57056 25.3624 11.0898 25.3624 13.5962C25.3624 16.1347 26.209 18.0577 27.5438 19.4872C29.1815 19.0642 30.8006 18.4424 32.1292 17.5449C32.2775 17.4424 32.4258 17.3334 32.568 17.2244C31.7275 17.327 30.8315 17.1988 30.0713 16.8077C29.0084 16.2565 28.2854 15.25 28.3781 13.8526C28.4831 12.3462 29.5831 11.0513 31.0848 11.0065C31.6781 10.9872 32.1725 11.1539 32.5556 11.4424C33.1241 11.8654 33.4393 12.5449 33.464 13.2629C33.4826 13.8142 33.3219 14.3911 32.9758 14.8911C32.741 15.2244 32.2899 15.3077 31.9685 15.0641C31.6472 14.8206 31.5669 14.3526 31.8017 14.0193C31.9562 13.7949 32.0303 13.5449 32.0242 13.3077C32.018 13.0577 31.9191 12.8142 31.7152 12.6667C31.573 12.5642 31.3753 12.5 31.1281 12.5065C30.3741 12.5321 29.8736 13.2244 29.8242 13.9616C29.7747 14.6667 30.1517 15.1795 30.7141 15.468C31.3876 15.8142 32.259 15.8398 32.9758 15.6218C34.4404 15.1795 35.0461 13.9488 35.0461 12.4936Z" fill="white"/>
</svg>
